<?xml version="1.0" standalone="no"?>
<!DOCTYPE svg PUBLIC "-//W3C//DTD SVG 20010904//EN"
 "http://www.w3.org/TR/2001/REC-SVG-20010904/DTD/svg10.dtd">
<svg version="1.0" xmlns="http://www.w3.org/2000/svg"
 width="1107.000000pt" height="1107.000000pt" viewBox="0 0 1107.000000 1107.000000"
 preserveAspectRatio="xMidYMid meet">
<metadata>
Created by potrace 1.14, written by Peter Selinger 2001-2017
</metadata>
<g transform="translate(0.000000,1107.000000) scale(0.100000,-0.100000)"
fill="#000000" stroke="none">
<path d="M5763 9351 l-138 -47 -3 -195 -2 -194 280 -95 280 -95 -2 -89 -3 -90
-135 -45 -135 -46 -7 -88 c-3 -49 -9 -92 -13 -95 -3 -4 -63 -27 -133 -52
l-127 -45 -3 -278 c-1 -152 -5 -277 -8 -277 -3 0 -190 63 -416 140 -225 77
-417 140 -426 140 -9 0 -78 -20 -152 -45 l-135 -45 3 -194 3 -194 277 -94 277
-95 0 -89 0 -89 -95 -33 c-52 -17 -114 -39 -137 -48 l-42 -15 -3 -91 -3 -91
-135 -46 -135 -46 -8 -275 c-5 -151 -10 -276 -12 -278 -1 -1 -188 60 -414 138
-226 77 -419 140 -429 139 -9 0 -75 -22 -147 -47 l-130 -47 -3 -184 c-1 -116
1 -188 8 -195 5 -5 130 -51 277 -101 l268 -91 9 -58 c8 -46 7 -59 -4 -66 -8
-5 -129 -48 -269 -96 -141 -47 -264 -91 -273 -96 -15 -7 -18 -23 -18 -98 0
-86 -1 -90 -23 -95 -23 -6 -86 14 -814 263 -161 55 -294 97 -298 94 -3 -3 -15
-7 -27 -9 -12 -2 -27 -8 -35 -14 -7 -6 -13 -8 -13 -4 0 4 -7 2 -15 -5 -8 -7
-15 -9 -15 -5 0 4 -7 2 -15 -5 -8 -7 -15 -10 -15 -7 0 5 -182 -56 -240 -80 -8
-3 -22 -7 -31 -9 -9 -2 -29 -9 -45 -15 -16 -7 -31 -13 -34 -13 -3 -1 -9 -4
-15 -7 -5 -3 -26 -6 -45 -8 -19 -2 -41 -8 -47 -13 -7 -6 -13 -7 -13 -3 0 4 -7
2 -15 -5 -8 -7 -15 -10 -15 -7 0 5 -182 -56 -240 -80 -8 -3 -22 -7 -31 -9 -9
-2 -29 -9 -45 -15 -16 -7 -32 -13 -36 -14 -5 -2 -9 -3 -10 -5 -2 -1 -10 -3
-18 -5 -16 -3 -304 -101 -330 -112 -8 -3 -17 -7 -20 -7 -3 -1 -13 -6 -23 -12
-16 -9 -17 -45 -15 -574 l3 -563 137 -46 138 -46 1 -370 c0 -203 0 -411 -1
-461 l-1 -90 58 -18 c32 -10 95 -32 141 -48 l82 -30 0 -288 c0 -220 3 -291 13
-297 6 -4 131 -49 277 -99 302 -103 277 -83 279 -219 l1 -70 285 -97 285 -97
140 49 139 49 423 -146 423 -145 105 35 c58 19 310 105 560 191 250 86 458
156 462 156 4 0 8 -37 10 -81 l3 -82 43 -12 c37 -11 42 -11 44 4 0 9 2 25 3
36 1 11 3 54 4 96 l1 77 90 32 90 32 0 95 c0 73 3 95 15 99 8 3 70 -13 139
-36 l125 -41 6 -64 c4 -36 4 -85 0 -111 -6 -45 -6 -46 17 -39 13 4 79 25 147
48 l125 40 135 -45 136 -44 5 -186 c3 -103 7 -189 10 -191 3 -3 199 62 437
143 l432 148 126 -41 125 -41 132 43 c73 24 167 57 208 73 41 16 80 30 85 31
6 2 16 6 23 10 6 5 12 5 12 1 0 -3 7 -1 15 6 8 7 15 9 15 5 0 -3 16 15 36 41
20 26 40 53 45 58 4 6 33 41 63 78 53 63 54 66 26 58 -34 -10 -78 -52 -139
-132 -24 -32 -45 -58 -47 -58 -4 0 24 60 48 106 10 17 24 34 33 37 13 6 15 71
15 563 l0 556 43 51 c23 28 48 58 55 67 34 41 89 110 111 138 19 25 77 59 87
49 4 -3 -123 -167 -127 -163 -2 2 -28 -28 -58 -67 -30 -39 -48 -67 -40 -62 54
32 104 76 150 132 30 36 61 74 70 84 9 11 27 35 40 53 26 38 49 55 93 67 l31
8 -31 -27 c-40 -36 -197 -242 -184 -242 22 0 121 97 188 185 62 80 91 109 126
124 24 10 28 10 19 -1 -145 -190 -203 -268 -195 -268 17 0 98 78 158 152 32
40 61 75 64 78 3 3 17 21 32 41 15 21 41 39 62 46 l35 11 -82 -108 c-45 -59
-86 -105 -92 -102 -5 3 -7 1 -2 -3 4 -5 0 -17 -10 -27 -9 -10 -11 -18 -6 -18
21 0 98 77 176 175 56 71 91 105 118 117 22 9 39 15 39 12 0 -9 -84 -114 -91
-114 -3 0 -34 -36 -68 -80 -34 -44 -58 -80 -53 -80 22 0 95 65 148 132 123
154 135 166 177 183 37 15 37 15 25 -5 -7 -11 -16 -20 -20 -20 -6 0 -153 -186
-172 -218 -13 -21 66 36 103 76 44 46 65 71 115 141 33 45 83 81 111 81 4 0
-36 -55 -88 -122 -112 -147 -116 -154 -91 -140 24 13 117 110 175 182 75 94
90 109 120 119 16 5 29 7 29 4 0 -8 -67 -91 -104 -129 -17 -17 -46 -52 -65
-79 l-35 -48 33 19 c45 26 83 64 175 177 50 62 89 100 109 107 43 14 44 6 6
-32 -18 -18 -64 -73 -102 -123 -39 -49 -75 -96 -81 -104 -9 -12 -7 -12 14 -1
29 15 119 105 170 169 19 24 40 48 45 55 6 6 20 25 32 42 12 17 37 35 57 41
l36 11 -33 -41 c-18 -23 -64 -81 -101 -130 l-67 -87 44 30 c41 27 78 66 154
160 55 69 86 100 100 100 27 0 11 -29 -73 -139 -47 -61 -83 -111 -81 -111 11
0 78 60 120 108 l47 53 0 -35 c0 -19 -5 -38 -11 -42 -8 -4 -7 -9 2 -14 9 -6
14 -54 17 -179 3 -94 8 -171 12 -171 13 0 532 179 567 195 17 8 37 15 45 15 8
0 18 3 22 8 4 4 11 7 14 8 4 0 14 4 22 7 24 10 246 86 352 120 l98 32 0 562
c0 318 -4 564 -9 567 -19 12 -827 286 -843 286 -9 0 -29 -5 -45 -12 -15 -6
-37 -13 -47 -15 -11 -2 -25 -8 -33 -14 -7 -6 -13 -8 -13 -4 0 4 -7 2 -15 -5
-8 -7 -15 -9 -15 -5 0 4 -7 2 -15 -5 -8 -7 -15 -10 -15 -7 0 5 -182 -56 -240
-80 -8 -3 -24 -8 -34 -10 -11 -2 -32 -10 -47 -17 -15 -8 -30 -11 -33 -8 -3 3
-6 89 -6 192 l0 186 -406 139 c-223 76 -412 138 -420 138 -8 0 -14 4 -14 9 0
5 -4 7 -8 4 -5 -3 -19 -7 -33 -9 -22 -4 -213 -69 -249 -84 -8 -3 -18 -7 -22
-7 -3 -1 -9 -4 -13 -8 -4 -3 -62 13 -131 35 l-124 42 0 91 c0 78 -3 93 -17 99
-10 3 -130 45 -268 92 -137 46 -256 92 -262 101 -8 9 -13 47 -13 94 0 64 -3
79 -17 86 -10 5 -144 50 -298 101 -154 51 -403 133 -552 183 l-272 90 -140
-48 -140 -49 -133 45 c-125 42 -133 47 -140 75 -4 17 -4 44 0 60 7 26 18 32
140 74 l132 46 0 278 c0 152 2 277 4 277 2 0 188 -63 412 -140 225 -77 418
-140 429 -140 11 0 79 20 150 43 l130 44 3 194 2 194 -280 95 -280 95 2 90 3
90 135 46 135 46 8 94 c4 51 9 94 10 94 1 1 61 22 132 46 l130 44 3 381 2 381
-212 73 c-117 40 -308 105 -425 146 l-212 73 -138 -48z m1987 -5885 c0 -2 -34
-48 -75 -101 -73 -95 -75 -97 -75 -64 0 52 93 159 148 169 1 0 2 -2 2 -4z
m-130 -50 c0 -3 -4 -8 -10 -11 -5 -3 -10 -1 -10 4 0 6 5 11 10 11 6 0 10 -2
10 -4z m-1860 -714 c126 -44 135 -49 142 -77 4 -17 4 -104 0 -193 l-7 -163
-135 -46 -135 -46 -141 49 -142 48 -4 166 c-2 91 -2 176 2 190 5 22 24 31 136
71 71 26 134 47 139 47 6 0 71 -20 145 -46z"/>
<path d="M8380 2379 c-14 -6 -61 -58 -105 -116 -91 -120 -94 -126 -69 -121 18
3 40 25 114 118 19 25 50 61 68 81 44 50 43 57 -8 38z"/>
<path d="M8237 2328 c-25 -9 -203 -225 -193 -235 13 -13 74 44 171 161 74 90
75 94 22 74z"/>
<path d="M8410 2302 c-19 -20 -49 -56 -67 -78 -27 -35 -29 -41 -13 -37 36 10
107 81 114 114 3 18 5 33 3 35 -1 2 -18 -14 -37 -34z"/>
<path d="M8100 2283 c-32 -13 -232 -253 -206 -249 30 5 77 45 131 113 33 42
65 81 70 87 45 52 48 56 34 55 -8 0 -21 -3 -29 -6z"/>
<path d="M7947 2229 c-9 -6 -54 -57 -98 -115 -44 -57 -85 -104 -90 -104 -6 0
-7 -5 -4 -10 12 -20 67 25 143 118 42 51 80 100 85 107 9 18 -9 20 -36 4z"/>
<path d="M7808 2183 c-14 -4 -86 -90 -192 -232 -9 -12 -7 -13 9 -6 11 4 28 8
37 9 9 0 16 3 15 6 -2 6 16 31 95 129 89 111 88 108 36 94z"/>
<path d="M5332 1843 c-1 -7 -7 -13 -14 -13 -37 0 -135 -107 -116 -126 10 -9
129 28 135 41 2 7 2 34 0 61 -2 27 -4 43 -5 37z"/>
</g>
</svg>
